<svg width="13" height="15" viewBox="0 0 13 15" fill="none" xmlns="http://www.w3.org/2000/svg">
<path d="M6.13974 0.0664062C2.73037 0.0664062 0.00585938 2.77987 0.00585938 6.05934C0.00585938 7.86906 1.16824 9.84081 2.45016 11.4415C3.09113 12.2418 3.76986 12.941 4.38905 13.4552C4.69864 13.7124 4.99224 13.9243 5.273 14.0811C5.55375 14.2378 5.81295 14.3559 6.13974 14.3559C6.47137 14.3559 6.70489 14.2296 6.96885 14.0725C7.23281 13.9153 7.51253 13.7053 7.80978 13.4488C8.40428 12.9358 9.06683 12.2377 9.69705 11.4383C10.9575 9.83941 12.1188 7.86906 12.1188 6.05934C12.1188 2.77987 9.40909 0.0664062 6.13974 0.0664062ZM6.13974 1.16559C8.79691 1.16559 11.0176 3.38561 11.0176 6.05934C11.0176 7.35923 10.0117 9.26154 8.83138 10.7588C8.24122 11.5074 7.61509 12.1632 7.08929 12.6169C6.82639 12.8438 6.58775 13.0203 6.40536 13.1289C6.22296 13.2375 6.08148 13.2567 6.13974 13.2567C6.15435 13.2567 6.006 13.2304 5.81068 13.1214C5.61536 13.0124 5.36473 12.8367 5.09234 12.6105C4.54755 12.158 3.90928 11.5033 3.31046 10.7556C2.11281 9.26013 1.10703 7.35923 1.10703 6.05934C1.10703 3.38561 3.31206 1.16559 6.13974 1.16559ZM6.06231 3.91357C6.02873 3.91357 5.99749 3.92158 5.96446 3.92323C6.02392 4.09305 6.06231 4.273 6.06231 4.46316C6.06231 5.37384 5.32288 6.11194 4.41055 6.11194C4.22005 6.11194 4.03978 6.07362 3.86965 6.01426C3.86799 6.04724 3.85997 6.07842 3.85997 6.11194C3.85997 7.326 4.84607 8.31032 6.06231 8.31032C7.27856 8.31032 8.26466 7.326 8.26466 6.11194C8.26466 4.89789 7.27856 3.91357 6.06231 3.91357Z" fill="#31CC24"/>
</svg>
